<?xml version="1.0" encoding="UTF-8"?><svg version="1.1" viewBox="0 -.14158 35.68 47.9131" xmlns="http://www.w3.org/2000/svg"><g fill="#0D0708"><path d="M6.09 5.93c.14-.05.28-.08.43-.08h1.53c2.99 0 5.18.64 6.55 1.92 1.37 1.28 2.06 3.29 2.06 6.03 0 2.08-.39 3.86-1.18 5.34 -.79 1.48-2 2.42-3.64 2.82l.05.11c2.63-.26 4.68-1.15 6.14-2.68 1.46-1.53 2.19-3.4 2.19-5.59 0-2.45-1.01-4.46-3.04-6.03 -2.03-1.57-5.07-2.36-9.12-2.36H6.09v.51Z"/><path d="M32.06 45.19c-1.13-1.34-2.27-2.95-3.4-4.84 -1.13-1.89-2.35-3.91-3.66-6.06 -1.31-2.15-2.81-4.13-4.49-5.93 -1.69-1.8-3.62-3.3-5.8-4.49 -2.18-1.19-4.72-1.79-7.63-1.79v.26c2.09.23 3.84 1.02 5.23 2.35 1.4 1.34 2.65 2.95 3.75 4.84 1.1 1.89 2.18 3.88 3.23 5.97 1.05 2.09 2.28 4.04 3.71 5.85 1.42 1.8 3.14 3.3 5.15 4.49 2.01 1.19 4.52 1.79 7.55 1.79v-.17c-1.28-.17-2.49-.93-3.62-2.27"/><path d="M19.88 39.07c-2.92 2.5-6.91 3.75-11.96 3.75H6.85c-1.27 0-1.9-.63-1.9-1.9V2.51c0-1.27.63-1.9 1.9-1.9h1.07c5.99 0 10.48 1.69 13.45 5.07 2.97 3.38 4.46 8.67 4.46 15.88 0 3.82-.42 7.11-1.25 9.87 .51.72 1 1.46 1.46 2.22 .32.52.64 1.05.95 1.57 .89-1.26 1.63-2.66 2.22-4.21 1.04-2.74 1.56-5.89 1.56-9.45 0-7.16-2.01-12.54-6.02-16.15C20.75 1.8 15.13 0 7.92 0H3.05c-2.03 0-3.05 1.02-3.05 3.05v37.33c0 2.03 1.02 3.05 3.05 3.05h4.88c3.56 0 6.74-.47 9.56-1.41 1.21-.4 2.33-.89 3.39-1.46 -.34-.49-.67-.98-.99-1.49"/></g></svg>